# xmcd
#
# Track frame offsets:
#	182
#	16400
#	32577
#	51327
#	67912
#	84827
#	101687
#	124855
#
# Disc length: 1854
#
# Revision: 3
# Processed by: cddbd v1.5.1PL0 Copyright (c) Steve Scherf et al.
# Submitted via: DiscPlay 4.0.4
# Normalized: r1:TDELIM( - ),TSWAP
#
DISCID=5d073c08
DTITLE=[Chameleon Colors] - Chameleon Colors
DYEAR=1900
DGENRE=
TTITLE0=The Way Moves - One more kiss
TTITLE1=Lowen and Navaro - Walking on a wire
TTITLE2=Dramarama - Wonderamaland
TTITLE3=The Bonedaddys - Shoorah shoorah
TTITLE4=Canned Heat - Looking for the party
TTITLE5=John Lee Hooker - Baby Lee
TTITLE6=Bill Ward - Tall stories
TTITLE7=Ecotour - Weekend guru
EXTD=
EXTT0=
EXTT1=
EXTT2=
EXTT3=
EXTT4=
EXTT5=
EXTT6=
EXTT7=
PLAYORDER=
